<svg xmlns="http://www.w3.org/2000/svg" width="79" height="79" viewBox="0 0 79 79">
  <path id="birthday" d="M79,61.922H71.562V48.035a7.723,7.723,0,0,0-7.438-7.708V26.434a7.728,7.728,0,0,0-5.717-7.451V16.624c1.635-1.287,4.475-4.025,4.475-7.532,0-4.644-4.98-7.942-5.548-8.3L56.093,0,54.852.788c-.568.361-5.548,3.659-5.548,8.3,0,3.507,2.84,6.246,4.475,7.532v2.1H41.814v-2.1c1.635-1.287,4.475-4.025,4.475-7.532,0-4.644-4.98-7.942-5.548-8.3L39.5,0,38.259.788c-.568.361-5.548,3.659-5.548,8.3,0,3.507,2.839,6.246,4.475,7.532v2.1H25.221v-2.1C26.857,15.337,29.7,12.6,29.7,9.092c0-4.644-4.98-7.942-5.548-8.3L22.907,0,21.666.788c-.568.361-5.548,3.659-5.548,8.3,0,3.507,2.839,6.246,4.475,7.532v2.359a7.728,7.728,0,0,0-5.717,7.451v13.9a7.723,7.723,0,0,0-7.438,7.708V61.922H0v4.629H2.275L5.963,79H73.037l3.688-12.449H79ZM39.5,5.661c1.05.943,2.16,2.271,2.16,3.43s-1.111,2.489-2.16,3.43c-1.05-.943-2.16-2.271-2.16-3.43S38.451,6.6,39.5,5.661Zm-20,28.017a7.529,7.529,0,0,0,10.317-.063,2.991,2.991,0,0,1,4.481,0,7.54,7.54,0,0,0,10.393,0,2.991,2.991,0,0,1,4.481,0,7.53,7.53,0,0,0,10.319.061V40.32H19.5ZM56.093,5.661c1.05.943,2.16,2.271,2.16,3.43s-1.111,2.489-2.16,3.43c-1.05-.942-2.16-2.271-2.16-3.43S55.044,6.6,56.093,5.661Zm-33.186,0c1.05.943,2.16,2.271,2.16,3.43s-1.111,2.489-2.16,3.43c-1.05-.942-2.16-2.271-2.16-3.43s1.111-2.491,2.16-3.43Zm-.316,17.687H56.409A3.089,3.089,0,0,1,59.5,26.434v1.891a8.428,8.428,0,0,0-2.882,1.729,2.991,2.991,0,0,1-4.481,0,7.541,7.541,0,0,0-10.393,0,2.991,2.991,0,0,1-4.481,0,7.541,7.541,0,0,0-10.393,0,2.991,2.991,0,0,1-4.481,0,8.429,8.429,0,0,0-2.88-1.728V26.434A3.09,3.09,0,0,1,22.6,23.348Zm-7.438,21.6H63.847a3.089,3.089,0,0,1,3.086,3.086v3.559a7.53,7.53,0,0,0-10.32.061,2.991,2.991,0,0,1-4.481,0,7.541,7.541,0,0,0-10.393,0,2.991,2.991,0,0,1-4.481,0,7.541,7.541,0,0,0-10.393,0,2.991,2.991,0,0,1-4.481,0,7.529,7.529,0,0,0-10.318-.062V48.035a3.09,3.09,0,0,1,3.086-3.086Zm-3.086,12a8.429,8.429,0,0,0,2.881-1.728,2.991,2.991,0,0,1,4.481,0,7.541,7.541,0,0,0,10.393,0,2.991,2.991,0,0,1,4.481,0,7.54,7.54,0,0,0,10.393,0,2.991,2.991,0,0,1,4.481,0,7.541,7.541,0,0,0,10.393,0,2.991,2.991,0,0,1,4.481,0,8.428,8.428,0,0,0,2.883,1.729v4.977H12.067ZM69.581,74.371H9.419L7.1,66.551H71.9Z" fill="#313638"/>
</svg>
