<svg xmlns="http://www.w3.org/2000/svg" width="79.003" height="74.634" viewBox="0 0 79.003 74.634">
  <g id="fashion" transform="translate(0.003 -14.135)">
    <path id="Path_21" data-name="Path 21" d="M73.166,50.383a44.137,44.137,0,0,0-5.547-8.038V35.983l10.955-9a1.157,1.157,0,0,0,.038-1.756L70.323,17.8a1.157,1.157,0,0,0-1.545,1.724l7.285,6.529-8.444,6.933v-4.73a1.158,1.158,0,1,0-2.315,0V41.818a77.7,77.7,0,0,1-24.889,0V28.256a1.157,1.157,0,1,0-2.315,0v4.733l-8.444-6.934,9.009-8.076a5.947,5.947,0,0,1,4.684-1.487,57.134,57.134,0,0,0,2.314,7.557c1.966,5,4.258,7.993,6.814,8.889a1.156,1.156,0,0,0,.765,0c2.556-.9,4.849-3.886,6.815-8.889A57.14,57.14,0,0,0,62.369,16.5a5.951,5.951,0,0,1,3.051.434,1.157,1.157,0,1,0,.911-2.128A8.3,8.3,0,0,0,57.5,16.3l-1.068.972a5.283,5.283,0,0,1-7.146,0L48.22,16.3a8.255,8.255,0,0,0-11.1-.042L27.107,25.232a1.157,1.157,0,0,0,.038,1.756l10.955,9v6.361a42.422,42.422,0,0,0-4.787,6.686c-1.76-.938-3.621-1.864-5.507-2.8-1.648-.819-3.307-1.645-4.9-2.483A15.778,15.778,0,0,0,26.191,37c.8-3.954-.372-7.485-3.228-9.69a9.029,9.029,0,0,0-9.276-1.159c-1.523.748-4.079,2.691-4.079,7.29,0,2.911,1.849,5.663,5.652,8.413a44.174,44.174,0,0,0,3.951,2.506,59.638,59.638,0,0,1-5.7,4.741C9.388,52.246,5.479,55.23,5.378,59.25a6.33,6.33,0,0,0-4.8,5.35,71.751,71.751,0,0,0,0,18.166,6.336,6.336,0,0,0,5.961,5.522c6.146.32,12.334.481,18.523.481s12.378-.16,18.524-.481a6.333,6.333,0,0,0,5.959-5.522q.346-2.7.483-5.424c.942.028,1.891.043,2.836.043,15.108,0,24.965-3.535,25.377-3.685A1.157,1.157,0,0,0,79,72.616a46.725,46.725,0,0,0-5.831-22.233ZM47.729,18.98a7.587,7.587,0,0,0,10.263,0l1.068-.972a5.932,5.932,0,0,1,.686-.537A52.37,52.37,0,0,1,57.9,23.2c-1.929,4.909-3.75,6.748-5.043,7.389-1.292-.641-3.114-2.48-5.042-7.389a52.4,52.4,0,0,1-1.842-5.734,6.063,6.063,0,0,1,.687.54ZM11.923,33.443c0-2.515.963-4.317,2.785-5.212a5.739,5.739,0,0,1,2.529-.556,7.162,7.162,0,0,1,4.313,1.47c1.252.966,3.225,3.212,2.374,7.4a13.813,13.813,0,0,1-3.1,6.078C15.825,39.815,11.923,36.84,11.923,33.443ZM6.655,61.393c2.063-.107,4.127-.2,6.134-.266a1.157,1.157,0,0,0-.08-2.313c-1.637.057-3.311.127-4.992.209.3-2.817,3.521-5.278,7.194-8.079a57.378,57.378,0,0,0,6.417-5.416c1.773.945,3.625,1.866,5.449,2.773s3.666,1.823,5.411,2.754a48.864,48.864,0,0,0-3.207,7.569c-3.893-.043-7.78-.027-11.637.058A1.159,1.159,0,1,0,17.394,61c8.627-.189,17.4-.056,26.068.4a4.017,4.017,0,0,1,3.783,3.5q.244,1.9.379,3.82C47.53,70,47.4,71.272,47.245,72.5A4.017,4.017,0,0,1,43.46,76c-2.62.137-5.253.243-7.848.321a42.924,42.924,0,0,0-.111-4.9,4.43,4.43,0,0,0-4.147-4.065,103.636,103.636,0,0,0-11.286,0,4.43,4.43,0,0,0-4.147,4.065,42.944,42.944,0,0,0-.11,4.938c-3.048-.081-6.12-.2-9.155-.359a4.017,4.017,0,0,1-3.785-3.5c-.155-1.216-.283-2.483-.379-3.768q.137-1.921.379-3.834a4.02,4.02,0,0,1,3.785-3.5Zm27.569-9.215c3.749,2.145,6.778,4.39,7.8,6.83q-5.292-.253-10.61-.349a46.439,46.439,0,0,1,2.81-6.481ZM33.193,78.112a2.108,2.108,0,0,1-1.966,1.94h0a101.369,101.369,0,0,1-11.033,0,2.108,2.108,0,0,1-1.966-1.94,40.63,40.63,0,0,1,0-6.506,2.108,2.108,0,0,1,1.967-1.94c1.83-.1,3.673-.15,5.516-.15s3.686.05,5.517.15a2.108,2.108,0,0,1,1.966,1.94,40.629,40.629,0,0,1,0,6.506ZM43.461,85.98a354.834,354.834,0,0,1-36.8,0,4.023,4.023,0,0,1-3.785-3.5q-.383-3-.5-6.019a6.334,6.334,0,0,0,4.166,1.854c3.126.164,6.294.285,9.433.367a4.429,4.429,0,0,0,4.1,3.686c1.872.1,3.758.154,5.643.154s3.771-.051,5.643-.154a4.429,4.429,0,0,0,4.1-3.723c2.684-.079,5.41-.188,8.122-.33A6.336,6.336,0,0,0,47.75,76.46q-.121,3.018-.5,6.02A4.02,4.02,0,0,1,43.461,85.98ZM72.884,72.818a89.069,89.069,0,0,0-1.312-10.324,1.157,1.157,0,1,0-2.275.427,86.824,86.824,0,0,1,1.3,10.4c-.891.183-1.9.372-3.02.557A89.619,89.619,0,0,0,66.1,60.087a1.157,1.157,0,1,0-2.275.427A87.354,87.354,0,0,1,65.272,74.23a91.638,91.638,0,0,1-12.413.844c-.918,0-1.84-.014-2.755-.042A71.611,71.611,0,0,0,49.541,64.6a6.327,6.327,0,0,0-5.026-5.4c-.85-3.536-4.48-6.377-9.16-9.048a42.043,42.043,0,0,1,4.336-6.109,80.18,80.18,0,0,0,13.17,1.092,80.119,80.119,0,0,0,13.151-1.089,42.941,42.941,0,0,1,5.162,7.517,44.543,44.543,0,0,1,5.5,20.22C75.921,72.021,74.63,72.4,72.884,72.818Z" fill="#000"/>
    <path id="Path_22" data-name="Path 22" d="M139.4,384.811c-1.546-.072-3.108-.109-4.644-.109s-3.1.037-4.644.109a1.157,1.157,0,0,0-1.1,1.086,38.889,38.889,0,0,0,0,4.7,1.157,1.157,0,0,0,1.1,1.086c1.545.072,3.107.109,4.644.109s3.1-.037,4.644-.109a1.157,1.157,0,0,0,1.1-1.086,38.89,38.89,0,0,0,0-4.7,1.157,1.157,0,0,0-1.1-1.086Zm-1.161,4.607c-2.326.083-4.64.083-6.966,0-.025-.779-.025-1.56,0-2.339,2.327-.084,4.639-.084,6.966,0,.029.779.029,1.561,0,2.339Z" transform="translate(-109.05 -313.39)" fill="#fff"/>
  </g>
</svg>
