<svg xmlns="http://www.w3.org/2000/svg" width="75.175" height="67.543" viewBox="0 0 75.175 67.543">
  <g id="wedding_1_" data-name="wedding (1)" transform="translate(-0.036 -26.111)">
    <path id="Path_34" data-name="Path 34" d="M25.13,86.65a19.27,19.27,0,1,1,15.78-6.761,14.812,14.812,0,0,0,6.97,2.341A26.243,26.243,0,0,0,36.723,43.369a25.907,25.907,0,0,0-7.163-1.975c4.994-3.676,6.9-6.757,6.9-9.445a5.838,5.838,0,0,0-10.232-3.844A5.838,5.838,0,0,0,16,31.95c0,2.688,1.91,5.769,6.906,9.446a26.233,26.233,0,1,0,9.2,51.592A30.812,30.812,0,0,1,25.13,86.65Z" fill="#313638"/>
    <path id="Path_35" data-name="Path 35" d="M181.05,128.715a26.288,26.288,0,0,0-5.874.659,30.821,30.821,0,0,1,6.974,6.338,19.269,19.269,0,1,1-15.78,6.761,14.812,14.812,0,0,0-6.97-2.341,26.234,26.234,0,1,0,21.651-11.416Z" transform="translate(-132.071 -87.529)" fill="#313638"/>
  </g>
</svg>
