<svg xmlns="http://www.w3.org/2000/svg" width="74.863" height="91.667" viewBox="0 0 74.863 91.667">
  <g id="wedding" transform="translate(0 0)">
    <g id="Group_28" data-name="Group 28">
      <path id="Path_20" data-name="Path 20" d="M118.338,78.294l-11.7-10.238v-45.9a5.347,5.347,0,0,0-5.347-5.347c-.115,0-.234.02-.35.029a6.84,6.84,0,0,0,2.642-5.376V6.875A6.883,6.883,0,0,0,96.706,0a6.769,6.769,0,0,0-1.3.131c-.222.043-.429.119-.643.182-.185.057-.373.1-.552.173a6.479,6.479,0,0,0-.764.371c-.108.06-.22.112-.325.176a7.015,7.015,0,0,0-.753.548c-.072.06-.144.115-.212.176a6.869,6.869,0,0,0-.68.7l-.153.182a6.8,6.8,0,0,0-.562.83c-.037.064-.072.13-.105.2a6.645,6.645,0,0,0-.417.94c-.023.064-.041.131-.063.2a6.9,6.9,0,0,0-.249,1.04.356.356,0,0,1-.011.047.345.345,0,0,0,0,.04,6.87,6.87,0,0,0-.087.943v4.583a6.857,6.857,0,0,0,3.361,5.874,7.66,7.66,0,0,0-4.227,4.16,4.216,4.216,0,0,0-1.986.047A4.4,4.4,0,0,0,81.662,24.7l-.571,2.093a7.363,7.363,0,0,0-1.361-1.555l-2.982-2.486a6.834,6.834,0,0,0,2.389-5.178V12.986A6.87,6.87,0,0,0,75.7,7.057h-.008l-.014-.008-.043-.021-.023-.014-.087-.047L75.5,6.954a7.077,7.077,0,0,0-.8-.373h-.026c-.089-.034-.185-.064-.293-.1l-.153-.044-.073-.021a5.855,5.855,0,0,0-.611-.153h-.012a7.22,7.22,0,0,0-1.254-.154h-.032a6.214,6.214,0,0,0-1.572.186,1.5,1.5,0,0,0-.7-.186H67.8a10.719,10.719,0,0,0-10.319,7.88L50.162,40.848a1.528,1.528,0,0,0,1.474,1.93H61.915a42.214,42.214,0,0,0-9.422,20.148L49.714,78.907a18.846,18.846,0,0,1-5.269,10.152,1.528,1.528,0,0,0,1.08,2.608H79.136a1.528,1.528,0,0,0,1.528-1.528V47.072A8.123,8.123,0,0,0,86.5,41.319l1.172-4.4.626,1.564V86.451L85.69,89.059a1.528,1.528,0,0,0,1.08,2.608h10.7A1.528,1.528,0,0,0,99,90.139V75.167l9.167,8.021v5.424a1.528,1.528,0,0,0,2.7.979l7.639-9.167a1.528,1.528,0,0,0-.168-2.13ZM77.761,27.581a4.39,4.39,0,0,1,.42,6.348l-2.338-5.143L73.87,24.444H74ZM71.12,10.458l.153-1.152a3.532,3.532,0,0,1,1.253-.112,1.369,1.369,0,0,1,.194.02l-.391.327-1.222,1.011Zm-.961,7.1.344-2.516,4.95-4.125a3.736,3.736,0,0,1,.628,2.07V17.57a3.819,3.819,0,0,1-3.819,3.819,3.769,3.769,0,0,1-2.5-.956ZM53.636,39.722l6.8-24.927A7.654,7.654,0,0,1,67.8,9.167h.414L64.052,39.722Zm16.153,0H67.136l.57-4.169Zm-3.763,3.056h5.291l.041.084a8.451,8.451,0,0,0,.555.94c.064.1.139.18.206.273.153.2.295.391.458.573.089.1.185.191.28.287.153.153.306.306.478.458.105.089.215.174.327.261.168.13.341.255.519.371.118.078.238.153.361.225.185.107.373.2.567.306.125.061.252.121.38.176.2.084.413.153.622.225.128.041.254.087.383.122.17.046.342.078.515.113A97.711,97.711,0,0,1,55.99,61.155,39.173,39.173,0,0,1,66.026,42.778ZM77.608,88.611H48.839a21.761,21.761,0,0,0,2.7-5A52.745,52.745,0,0,0,77.608,63.447Zm0-30.968-.749,1.283A49.7,49.7,0,0,1,52.606,79.938c.034-.171.089-.335.118-.507l2.532-14.555a100.665,100.665,0,0,0,22.353-14.2ZM83.553,40.53a5.082,5.082,0,0,1-4.541,3.738l-.218.021a1.284,1.284,0,0,1-.153.015,5.058,5.058,0,0,1-4.547-2.811l-.458-.927L68.442,30.178l.646-4.736.122-.9a2.794,2.794,0,0,1,.759-.1h.544l7.232,15.91a1.491,1.491,0,0,0,.255.387c.014.014.031.023.044.038a1.474,1.474,0,0,0,.306.249c.015.009.032.014.046.021a1.553,1.553,0,0,0,.37.153.267.267,0,0,1,.1.014,1.52,1.52,0,0,0,.267.034h.122c.015,0,.041-.012.064-.015a.468.468,0,0,0,.138-.014c.046-.014.072-.034.112-.046a1.646,1.646,0,0,0,.267-.108,1.491,1.491,0,0,0,.177-.107,1.592,1.592,0,0,0,.209-.185,1.812,1.812,0,0,0,.136-.153,1.535,1.535,0,0,0,.137-.246,1.406,1.406,0,0,0,.086-.189c0-.021.02-.038.026-.058L83.991,27.72l.431,1.079,1.354,3.379ZM94.258,3.972l.035-.029a3.816,3.816,0,0,1,.639-.426c.037-.02.072-.041.11-.06a3.717,3.717,0,0,1,.657-.246c.052-.014.1-.035.153-.049a3.742,3.742,0,0,1,.854-.107,3.819,3.819,0,0,1,3.819,3.819V7L98.55,5.031a1.528,1.528,0,0,0-1.08-.448H93.676a3.776,3.776,0,0,1,.582-.611Zm-1.372,7.486V7.639h3.951l3.688,3.688v.131a3.819,3.819,0,1,1-7.639,0Zm3.056,8.4h.515c-.026.053-.035.113-.058.168a5.113,5.113,0,0,0-.266.764c-.026.1-.052.192-.072.292a5.314,5.314,0,0,0-.119,1.069v9.57L92,23.847a3.942,3.942,0,0,0-.434-.681,4.583,4.583,0,0,1,4.376-3.305Zm-9.2,6.488a1.322,1.322,0,0,1,.014-1.047,1.424,1.424,0,0,1,.794-.752,1.233,1.233,0,0,1,1.375.252,1.388,1.388,0,0,1,.348.406L96.1,38.874a1.53,1.53,0,0,0,.283.385,1.094,1.094,0,0,0,.115.093,1.425,1.425,0,0,0,.264.182,1.3,1.3,0,0,0,.153.066,1.414,1.414,0,0,0,.3.083,1.122,1.122,0,0,0,.163.023c.032,0,.063.014.1.014a1.624,1.624,0,0,0,.351-.04A1.528,1.528,0,0,0,99,38.194V22.153a2.27,2.27,0,0,1,1.632-2.176,2.225,2.225,0,0,1,.66-.116,2.292,2.292,0,0,1,2.292,2.292V38.544a5.76,5.76,0,0,1-11.108,2.139l-3.667-9.167Zm9.2,62.262H90.463l.448-.448a1.528,1.528,0,0,0,.448-1.08V53.472h4.583ZM97.47,50.417H91.358V44.552c.121.13.252.249.38.371.061.058.119.121.182.177a8.7,8.7,0,0,0,.888.7c.072.05.153.093.22.141a8.74,8.74,0,0,0,.805.458c.087.044.173.09.263.131a8.648,8.648,0,0,0,1.069.417c.058.018.118.029.176.046a8.736,8.736,0,0,0,.978.223c.1.018.208.035.306.05a9.048,9.048,0,0,0,1.192.089,8.824,8.824,0,0,0,1.5-.138c.055-.009.11-.014.165-.024a8.72,8.72,0,0,0,1.337-.376c.072-.026.144-.05.214-.078a8.666,8.666,0,0,0,1.2-.585c.069-.04.136-.081.2-.122a8.914,8.914,0,0,0,1.082-.782c.017-.015.038-.026.057-.041v5.207Zm13.75,33.975V82.5a1.537,1.537,0,0,0-.521-1.15L99,71.112V53.472h4.583V68.75a1.537,1.537,0,0,0,.521,1.15l11.1,9.711Z" transform="translate(-43.998)" fill="#313638"/>
    </g>
  </g>
</svg>
